<svg width="17" height="20" viewBox="0 0 17 20" fill="none" xmlns="http://www.w3.org/2000/svg">
<g clip-path="url(#clip0_30_458)">
<path d="M13.15 9.66667V6.45715C13.15 5.80001 13.71 5.26667 14.4 5.26667C15.09 5.26667 15.65 5.80001 15.65 6.45715V10.6286C15.65 14.0381 15.24 15.0476 14.15 17.1048C12.87 19.2095 10.19 19.5238 9.14996 19.5238C8.10996 19.5238 5.40996 19.4667 3.17996 15.4191C0.609963 10.6667 0.649963 10.7238 0.639963 10.7048C0.639963 10.7048 0.639963 10.7048 0.639963 10.6952C0.329963 10.0952 0.549963 9.31429 1.12996 8.98096C1.38996 8.82858 1.68996 8.79048 1.98996 8.86667C2.29996 8.95239 2.71996 9.4381 2.71996 9.4381L2.72996 9.44762C2.72996 9.44762 4.22996 11.1238 4.67996 11.6C5.12996 12.0762 5.61996 11.8857 5.61996 11.0952V2.85715C5.61996 2.20001 6.17996 1.66667 6.86996 1.66667C7.55996 1.66667 8.11996 2.20001 8.11996 2.85715V9.40953M10.64 9.42858V2.88572C10.64 2.22858 11.2 1.69524 11.89 1.69524C12.58 1.69524 13.14 2.22858 13.14 2.88572V9.6762M8.12996 9.40953V1.66667C8.12996 1.00953 8.68996 0.476196 9.37996 0.476196C10.07 0.476196 10.63 1.00953 10.63 1.66667V9.40953" stroke="#4A5045" stroke-miterlimit="10" stroke-linecap="round"/>
</g>
<defs>
<clipPath id="clip0_30_458">
<rect width="16.15" height="20" fill="white"/>
</clipPath>
</defs>
</svg>
