<svg width="20" height="20" viewBox="0 0 20 20" fill="none" xmlns="http://www.w3.org/2000/svg">
<path d="M18.5886 4.59461L18.9421 4.94816L18.5886 4.59461ZM6.98196 16.2012L6.62841 15.8477L6.98196 16.2012ZM0.795776 19.2042L0.331267 19.0192C0.241156 19.2454 0.327141 19.5037 0.534886 19.6308C0.74263 19.7578 1.0117 19.7167 1.17206 19.5335L0.795776 19.2042ZM3.79878 13.018L4.14931 13.3746L4.15233 13.3716L3.79878 13.018ZM15.4054 1.41142L15.7589 1.76498V1.76498L15.4054 1.41142ZM18.5886 1.41142L18.232 1.76196L18.235 1.76498L18.5886 1.41142ZM13.7169 3.09991C13.5216 2.90465 13.2051 2.90465 13.0098 3.09991C12.8145 3.29517 12.8145 3.61176 13.0098 3.80702L13.7169 3.09991ZM16.193 6.9902C16.3882 7.18546 16.7048 7.18546 16.9001 6.9902C17.0953 6.79494 17.0953 6.47836 16.9001 6.2831L16.193 6.9902ZM18.235 4.24105L6.62841 15.8477L7.33552 16.5548L18.9421 4.94816L18.235 4.24105ZM6.62841 15.8477C6.56034 15.9157 6.42306 16.0192 6.2042 16.1538C5.99243 16.284 5.72901 16.4285 5.42873 16.5821C4.82849 16.8891 4.10322 17.221 3.39497 17.5321C2.6876 17.8429 2.00446 18.1298 1.48748 18.3483C1.23035 18.457 1.0117 18.5499 0.853714 18.6195C0.775324 18.6541 0.706735 18.6852 0.653974 18.7109C0.628228 18.7234 0.59997 18.7377 0.573849 18.7525C0.561021 18.7597 0.542876 18.7704 0.523275 18.7837C0.512026 18.7914 0.465019 18.8229 0.419488 18.875L1.17206 19.5335C1.12982 19.5817 1.08858 19.6086 1.08552 19.6107C1.07925 19.615 1.07442 19.618 1.07177 19.6196C1.06898 19.6213 1.06717 19.6223 1.06666 19.6226C1.06642 19.6227 1.07341 19.6189 1.0917 19.61C1.12702 19.5928 1.18169 19.5678 1.25715 19.5345C1.40685 19.4685 1.61824 19.3787 1.87679 19.2694C2.39115 19.052 3.08188 18.7619 3.79718 18.4476C4.51161 18.1338 5.25781 17.7928 5.8841 17.4724C6.1971 17.3123 6.48571 17.1546 6.72803 17.0056C6.96326 16.8609 7.18211 16.7082 7.33552 16.5548L6.62841 15.8477ZM0.795776 19.2042C1.26029 19.3892 1.26029 19.3892 1.26029 19.3892C1.26031 19.3892 1.26032 19.3891 1.26035 19.3891C1.2604 19.3889 1.26049 19.3887 1.26061 19.3884C1.26084 19.3878 1.26121 19.3869 1.2617 19.3857C1.26267 19.3832 1.26415 19.3795 1.26613 19.3746C1.27007 19.3647 1.27597 19.35 1.28374 19.3307C1.29927 19.292 1.32224 19.235 1.35184 19.162C1.41103 19.016 1.49668 18.8062 1.60227 18.5516C1.81356 18.0422 2.10413 17.3548 2.42185 16.641C2.74011 15.9261 3.08309 15.1906 3.39936 14.5828C3.5576 14.2788 3.70635 14.0121 3.83961 13.7985C3.9776 13.5774 4.08229 13.4405 4.1493 13.3746L3.44826 12.6615C3.2938 12.8133 3.13854 13.033 2.99118 13.2692C2.83911 13.513 2.67711 13.8045 2.51229 14.1212C2.18245 14.755 1.83005 15.5116 1.50829 16.2344C1.186 16.9583 0.891924 17.6541 0.678567 18.1685C0.571832 18.4259 0.485165 18.6381 0.425116 18.7862C0.395089 18.8603 0.37171 18.9183 0.355798 18.9579C0.347841 18.9778 0.341751 18.993 0.337628 19.0033C0.335567 19.0084 0.333998 19.0124 0.332933 19.015C0.332401 19.0164 0.331995 19.0174 0.331717 19.0181C0.331578 19.0184 0.331471 19.0187 0.331396 19.0189C0.331358 19.019 0.331326 19.0191 0.331307 19.0191C0.331283 19.0192 0.331267 19.0192 0.795776 19.2042ZM4.15233 13.3716L15.7589 1.76498L15.0518 1.05787L3.44523 12.6645L4.15233 13.3716ZM15.7589 1.76498C16.4513 1.07267 17.5587 1.07705 18.232 1.76194L18.9451 1.0609C17.8767 -0.0259754 16.1313 -0.0215916 15.0518 1.05787L15.7589 1.76498ZM18.235 1.76498C18.9256 2.4556 18.9256 3.55043 18.235 4.24105L18.9421 4.94816C20.0233 3.86701 20.0233 2.13902 18.9421 1.05787L18.235 1.76498ZM13.0098 3.80702L16.193 6.9902L16.9001 6.2831L13.7169 3.09991L13.0098 3.80702Z" fill="#4A5045"/>
</svg>
