<svg width="22" height="26" viewBox="0 0 22 26" fill="none" xmlns="http://www.w3.org/2000/svg">
<path fill-rule="evenodd" clip-rule="evenodd" d="M19.8701 9.00872L11.0001 1.99128L2.13002 9.00872L19.8701 9.00872ZM12.5615 0.640095C11.7199 -0.213365 10.2802 -0.213365 9.43858 0.640095L0.568538 7.65753C-0.689167 8.93291 0.276503 11 2.13002 11H19.8701C21.7236 11 22.6893 8.93291 21.4316 7.65753L12.5615 0.640095Z" fill="#938D8C"/>
<path fill-rule="evenodd" clip-rule="evenodd" d="M2.12999 16.9913L11 24.0087L19.8701 16.9913L2.12999 16.9913ZM9.43855 25.3599C10.2802 26.2134 11.7199 26.2134 12.5615 25.3599L21.4316 18.3425C22.6893 17.0671 21.7236 15 19.8701 15L2.12999 15C0.276477 15 -0.689195 17.0671 0.568509 18.3425L9.43855 25.3599Z" fill="#938D8C"/>
</svg>
